# xmcd
#
# Track frame offsets:
#	150
#	5735
#	29325
#	52060
#	79312
#	102927
#	109605
#	131025
#	151457
#	168867
#	186625
#	211662
#	223950
#	253725
#
# Disc length: 3602 seconds
#
# Revision: 1
# Processed by: cddbd v1.5.1PL0 Copyright (c) Steve Scherf et al.
# Submitted via: CDex 1.50Beta5
#
DISCID=cc0e100e
DTITLE=fantastic designs,the - BEAUTIFUL FOREVER
DYEAR=1999
DGENRE=Rock
TTITLE0=Theme of B.F.
TTITLE1=Naked Soul
TTITLE2=Boomerang
TTITLE3=FLAMING BLUES
TTITLE4=FLYING V.
TTITLE5=YAMASANG
TTITLE6=BLOWING YOUTH
TTITLE7=Garactica Avenue
TTITLE8=You’ve got the 3 men’s groove
TTITLE9=SODA POP
TTITLE10=月とマイウェイ
TTITLE11=BEAUTIFUL FOREVER
TTITLE12=隼
TTITLE13=夕陽に背を向けて
EXTD=
EXTT0=
EXTT1=
EXTT2=
EXTT3=
EXTT4=
EXTT5=
EXTT6=
EXTT7=
EXTT8=
EXTT9=
EXTT10=
EXTT11=
EXTT12=
EXTT13=
PLAYORDER=
